<?xml version="1.0" encoding="utf-8"?>
<!-- Generator: Adobe Illustrator 25.0.0, SVG Export Plug-In . SVG Version: 6.00 Build 0)  -->
<svg version="1.1" id="Layer_1" xmlns="http://www.w3.org/2000/svg" xmlns:xlink="http://www.w3.org/1999/xlink" x="0px" y="0px"
	 width="141.7px" height="379.8px" viewBox="0 0 141.7 379.8" style="enable-background:new 0 0 141.7 379.8;" xml:space="preserve"
	>
<circle cx="70.9" cy="288.9" r="22"/>
<path d="M72,336.1c-0.1-4.6-0.2-9.2-0.5-13.8c-0.1-0.9-1.5-0.9-1.4,0c0.3,4.6,0.4,9.2,0.5,13.8c0,2.3,0,4.5,0,6.8
	c0,1.2,0,2.3-0.1,3.5c0,1.1-0.1,2.3,0.1,3.4c0.1,0.6,1,0.5,1.1,0c0.3-1.1,0.2-2.3,0.2-3.4c0-1.2,0-2.3,0.1-3.5
	C72.1,340.6,72,338.3,72,336.1z"/>
<path d="M72.1,245c0-2.1-0.1-4.1-0.1-6.2c0-1.1,0-2.2-0.1-3.2c0-1,0-2.1-0.2-3.1c-0.1-0.5-1-0.6-1.1,0c-0.2,1-0.1,2.1-0.1,3.1
	s0.1,2.1,0.1,3.1c0,2.1,0.1,4.2,0.1,6.3c0.1,4.2,0.1,8.5,0.1,12.7c0,0.9,1.4,0.9,1.4,0C72.2,253.4,72.2,249.2,72.1,245z"/>
<path d="M119.9,287.6c-1.1-0.1-2.3,0.2-3.4,0.3c-1.1,0.1-2.2,0.2-3.3,0.2c-2.2,0.1-4.5,0-6.7-0.1c-0.9-0.1-0.9,1.3,0,1.4
	c2.3,0.1,4.5,0.2,6.8,0.1c1.1,0,2.3-0.1,3.4-0.2s2.3-0.1,3.3-0.5C120.7,288.5,120.6,287.6,119.9,287.6z"/>
<path d="M35.2,293.3c-2.5,0.4-5.1,0.6-7.7,0.8c-1.2,0.1-2.5,0.1-3.7,0.2c-1.3,0-2.6,0-3.9,0.1c-0.8,0.1-0.8,1.1,0,1.2
	c1.3,0.2,2.6,0.1,3.9,0c1.3,0,2.6-0.1,3.9-0.2c2.6-0.2,5.2-0.5,7.8-0.8C36.5,294.5,36.1,293.2,35.2,293.3z"/>
<path d="M49.9,315.6c-1.3,1.8-2.6,3.6-3.8,5.5c-0.6,0.9-1.2,1.9-1.8,2.8s-1.2,1.9-1.6,2.9c-0.2,0.5,0.6,1,1,0.6
	c0.7-0.8,1.2-1.8,1.8-2.7c0.6-0.9,1.2-1.9,1.8-2.8c1.2-1.9,2.5-3.7,3.8-5.5C51.6,315.6,50.4,314.9,49.9,315.6z"/>
<path d="M103.3,246.5c-1,1.2-1.9,2.6-2.8,4c-0.9,1.3-1.8,2.7-2.7,4c-1.8,2.7-3.6,5.4-5.4,8.2c-0.5,0.8,0.7,1.5,1.2,0.7
	c1.8-2.7,3.5-5.4,5.3-8.1c0.9-1.3,1.7-2.6,2.6-3.9c0.9-1.4,1.8-2.7,2.6-4.2C104.4,246.6,103.7,246,103.3,246.5z"/>
<path d="M104.4,325.2c-3.1-4.4-6.4-8.6-9.6-12.8c-0.5-0.7-1.7,0-1.2,0.7c3.3,4.3,6.4,8.7,9.9,12.9
	C103.9,326.4,104.8,325.7,104.4,325.2z"/>
<path d="M49.7,262c-6.1-6.8-12-13.6-18.3-20.2c-0.5-0.5-1.3,0.3-0.8,0.8c5.8,6.9,12,13.6,18.1,20.4C49.4,263.7,50.3,262.7,49.7,262z
	"/>
<path d="M121.2,260.3c-4.2,2.7-8.2,5.7-12.3,8.5c-0.7,0.5,0,1.7,0.7,1.2c4.1-2.9,8.3-5.7,12.3-8.8
	C122.4,260.8,121.7,260,121.2,260.3z"/>
<path d="M41,308.4c-2.4,1.1-4.7,2.3-6.9,3.5c-2.2,1.3-4.5,2.5-6.5,4.1c-0.5,0.4,0.2,1.3,0.7,0.9c2.2-1.2,4.4-2.7,6.6-3.9
	c2.2-1.2,4.5-2.4,6.8-3.5C42.5,309.2,41.8,308,41,308.4z"/>
<path d="M58.3,327c-0.5,2.9-1,5.8-1.4,8.7c-0.5,2.9-1,5.7-1.3,8.6c-0.1,0.7,1,0.8,1.2,0.2c0.6-2.8,1-5.7,1.5-8.5s0.9-5.7,1.4-8.5
	C59.8,326.4,58.4,326.1,58.3,327z"/>
<path d="M93.7,343.5c-1.2-3.3-2.7-6.5-4.2-9.6c-1.5-3.2-3.2-6.3-4.9-9.3c-0.4-0.8-1.6-0.1-1.2,0.7c1.7,3,3.3,6.1,4.8,9.2
	s2.9,6.3,4.3,9.4C92.9,344.6,93.9,344.2,93.7,343.5z"/>
<path d="M119.1,313.5c-3.8-4.4-8.7-7.9-13.8-10.5c-0.8-0.4-1.5,0.8-0.7,1.2c5.1,2.6,9.6,6.1,13.6,10.2
	C118.8,314.9,119.6,314.1,119.1,313.5z"/>
<path d="M38.4,273.6c-2.8-1.7-5.6-3.5-8.3-5.2c-2.8-1.7-5.5-3.6-8.4-5.1c-0.7-0.4-1.2,0.6-0.6,1c2.7,1.9,5.5,3.6,8.3,5.4
	c2.8,1.7,5.6,3.5,8.3,5.2C38.5,275.3,39.2,274.1,38.4,273.6z"/>
<path d="M57,252.1c-2.3-8.7-4.4-17.4-6.3-26.2c-0.5-2.5-1.1-4.9-1.6-7.4c-0.2-0.7-1.2-0.4-1.1,0.3c1.5,8.8,3.5,17.6,5.7,26.3
	c0.6,2.5,1.3,4.9,1.9,7.3C55.9,253.3,57.3,253,57,252.1z"/>
<path d="M89.3,217.9c-2.2,8.9-3.9,17.9-5.3,27c-0.4,2.6-0.8,5.2-1.2,7.8c-0.1,0.9,1.2,1.3,1.3,0.4c1.3-9.1,2.8-18.1,4.6-27.1
	c0.5-2.6,1-5.1,1.5-7.7C90.5,217.6,89.5,217.3,89.3,217.9z"/>
<path d="M52,325.9c-1.7,4.8-3.4,9.6-5.1,14.3l-2.5,7.1c-0.9,2.4-1.8,4.8-2.5,7.3c-0.2,0.6,0.8,1.1,1.1,0.5c1.1-2.3,1.8-4.8,2.7-7.2
	c0.8-2.4,1.7-4.8,2.5-7.2c1.7-4.8,3.4-9.6,5.1-14.5C53.6,325.4,52.3,325.1,52,325.9z"/>
<path d="M64.2,327.7c-0.1,4.6-0.4,9.1-0.8,13.7c-0.4,4.5-1,9.1-1.3,13.6c0,0.6,1,0.8,1.1,0.2c0.9-4.5,1.2-9.1,1.5-13.6
	c0.4-4.6,0.6-9.2,0.8-13.8C65.6,326.8,64.2,326.8,64.2,327.7z"/>
<path d="M79.4,330.2c-0.1-0.9-1.5-0.5-1.3,0.4c1.3,7.8,2.4,15.7,3.9,23.5c0.1,0.6,1.2,0.5,1.1-0.2C82.1,345.9,80.6,338,79.4,330.2z"
	/>
<path d="M107.6,345c-0.9-2-2.2-3.9-3.4-5.8c-1.2-1.9-2.5-3.8-3.8-5.7c-2.6-3.7-5.4-7.2-8.2-10.7c-0.6-0.7-1.6,0.3-1,1
	c2.9,3.4,5.6,7,8.2,10.6c1.3,1.8,2.5,3.6,3.7,5.5s2.3,3.8,3.6,5.6C107,346.2,107.9,345.7,107.6,345z"/>
<path d="M124.5,328.4c-3-3.1-6.3-5.8-9.5-8.7l-9.6-8.6c-0.7-0.6-1.7,0.4-1,1l9.6,8.6c3.2,2.9,6.3,5.8,9.7,8.5
	C124.3,329.6,125,328.9,124.5,328.4z"/>
<path d="M123.8,300.4c-2.8-0.6-5.6-0.9-8.4-1.6s-5.5-1.6-8.1-2.7c-0.8-0.3-1.2,1-0.4,1.3c2.7,1.1,5.4,2,8.3,2.7
	c2.8,0.7,5.7,1.4,8.5,1.4C124.2,301.5,124.4,300.5,123.8,300.4z"/>
<path d="M128.9,273.3c-1.5,0.2-3,0.8-4.5,1.1c-1.5,0.4-3,0.8-4.5,1.1c-3,0.7-6.1,1.2-9.2,1.7c-0.9,0.1-0.5,1.5,0.4,1.3
	c3.1-0.5,6.2-1,9.3-1.7c1.5-0.3,3-0.7,4.5-1.1s3.1-0.8,4.5-1.4C129.9,274.1,129.4,273.2,128.9,273.3z"/>
<path d="M123.7,240.6c-3.8,3.2-7.3,6.8-10.8,10.3c-3.5,3.6-6.8,7.3-10,11.1c-0.6,0.7,0.4,1.7,1,1c3.2-3.8,6.6-7.5,10-11.1
	c3.5-3.6,7.1-7,10.6-10.5C125,240.9,124.2,240.2,123.7,240.6z"/>
<path d="M104.3,230c-2.8,4-5.2,8.2-7.8,12.3c-2.5,4.1-5.1,8.2-7.6,12.4c-0.5,0.8,0.7,1.5,1.2,0.7c2.5-4.1,5.1-8.2,7.6-12.4
	c2.5-4.1,5.2-8.2,7.5-12.4C105.6,230,104.7,229.5,104.3,230z"/>
<path d="M80.9,213.8c0-0.7-1-0.7-1.1,0c-0.3,4.5-0.4,8.9-0.6,13.4c-0.2,4.4-0.4,8.8-0.7,13.3c-0.2,2.5-0.4,5-0.6,7.5
	c-0.1,0.9,1.3,0.9,1.4,0c0.7-8.9,1.3-17.7,1.5-26.6C80.9,218.9,81,216.3,80.9,213.8z"/>
<path d="M62.6,221.3c-0.1-2.5-0.3-5-0.5-7.5c-0.1-0.7-1.1-0.7-1.1,0c0,4.4,0.3,8.7,0.5,13.1c0.2,4.4,0.3,8.7,0.4,13.1
	c0.1,2.5,0.1,5,0.1,7.5c0,0.9,1.4,0.9,1.4,0C63.3,238.8,63.1,230,62.6,221.3z"/>
<path d="M50.5,252.5c-5.2-6.9-10.3-13.9-15.2-21c-1.4-2-2.8-4.1-4.2-6.1c-0.4-0.6-1.3-0.1-0.9,0.5c4.5,7.4,9.5,14.4,14.6,21.4
	c1.5,2,3,4,4.5,6C49.8,253.9,51,253.2,50.5,252.5z"/>
<path d="M40.8,265.7c-3.1-3.4-6.4-6.6-9.8-9.7c-1.7-1.5-3.4-2.9-5.2-4.3c-1.8-1.4-3.6-2.9-5.6-4.1c-0.6-0.3-1.3,0.5-0.7,0.9
	c1.7,1.4,3.6,2.7,5.4,4.1c1.8,1.4,3.6,2.9,5.3,4.4c3.4,3,6.7,6.2,9.7,9.6C40.4,267.3,41.4,266.3,40.8,265.7z"/>
<path d="M32.2,283.1c-3.9-0.3-7.8-0.5-11.8-0.5c-1.9,0-3.9,0-5.8,0c-2,0-4,0-5.9,0.2c-0.7,0.1-0.8,1.1,0,1.2c2,0.1,4,0,5.9,0
	s3.9,0,5.8,0c3.9,0.1,7.8,0.2,11.8,0.5C33.1,284.5,33.1,283.1,32.2,283.1z"/>
<path d="M36.3,301.8c-6.6,2.3-13.2,4.6-19.7,7.1c-0.7,0.3-0.4,1.4,0.3,1.1c6.7-2.1,13.2-4.5,19.8-6.9
	C37.5,302.9,37.1,301.5,36.3,301.8z"/>
<path d="M42.5,315c-6.2,6.1-12.3,12.1-18.5,18.2c-1.7,1.7-3.5,3.4-5.1,5.2c-0.5,0.6,0.3,1.3,0.8,0.8c3.2-2.8,6.2-6,9.3-9
	c3.1-3,6.2-6.1,9.3-9.1c1.7-1.7,3.5-3.4,5.2-5.1C44.1,315.3,43.2,314.4,42.5,315z"/>
<path d="M76.9,181.7c1.1-3.2,1.4-6.5,0.9-9.8c-0.5-3.2-1.6-6.4-3.5-9.2c-1.8-2.6-4.1-5-6.3-7.3c-2.3-2.5-4.5-5.2-5.5-8.3
	c-1.1-3.5-0.9-7.2,0-10.7c1.8-7,5.6-13.5,8.7-20.2c3-6.6,5.6-13.4,6.3-20.5c0.7-6.9-0.9-13.6-3.3-20.1C71.9,69.2,69,63,67.8,56.3
	c-0.6-3.5-0.7-7.1-0.1-10.6c0.6-3.7,1.8-7.2,2.8-10.8c1.8-6.2,3.3-13,0.9-19.3c-0.5-1.5-1.3-2.8-2.3-4.1c-0.5-0.6-1.7,0-1.2,0.6
	c4.2,5.7,3.7,12.8,2.1,19.2c-1.8,7-4.6,13.9-4.1,21.2c0.9,13.6,10.2,25.6,10.3,39.3c0.1,7.2-2.2,14.3-5.1,21S64.4,126,62,132.9
	c-1.2,3.3-2,6.9-1.7,10.4c0.2,3.2,1.4,6.2,3.3,9c1.8,2.6,4.2,4.9,6.4,7.3c2.4,2.6,4.4,5.4,5.5,8.7s1.4,6.8,0.8,10.2
	c-0.6,3.5-2.3,6.7-3.9,9.9c-2,3.9-4.2,8.1-4.7,12.4c-1,0-1.9,0.1-2.9,0.1c-0.9,0-0.9,1.3,0,1.2c0.9,0,1.8-0.1,2.8-0.1
	c-0.1,1.4,0.1,2.9,0.5,4.4c0.4,1.4,1.1,2.7,2,3.9c0.5,0.6,1.7,0,1.2-0.6c-1.9-2.4-2.5-5-2.3-7.8c0.3,0,0.7,0,1,0
	c0.9,0,1.7-0.1,2.6-0.1c0.5,0,1,0,1.5,0c-0.3,1.2-0.6,2.5-0.9,3.7c-0.4,1.7-0.8,3.3-1.2,5c-0.6,2.6-1.2,5.2-1.8,7.8
	c-1.6-4.7-3.3-9.5-4.9-14.2c-0.3-0.8-1.6-0.4-1.3,0.3c1.9,5.5,3.8,11,5.7,16.5c0.2,0.5,1.2,0.6,1.3,0c0.8-3.4,1.6-6.8,2.4-10.2
	c0.4-1.7,0.8-3.3,1.2-5c0.4-1.7,0.9-3.4,1.2-5.1c0.1-0.7-1-1-1.2-0.3v0.1c-0.6,0-1.3,0.1-1.9,0.1c-0.9,0-1.7,0.1-2.6,0.1h-0.9
	c0.4-3.3,1.9-6.6,3.4-9.5C74.1,188,75.8,185,76.9,181.7z"/>
<path d="M101,80.1c-2.6-6.3-6.2-12.1-6.9-18.9c-0.7-6.9,0.7-13.9,1.7-20.7c1.5-10.2,2-22.5-6.3-30.6c-0.9-0.9-1.9-1.7-3.1-2.4
	c-0.6-0.4-1.3,0.5-0.8,0.9c9.6,6.9,10.4,18.9,9.1,29.1c-0.9,6.8-2.4,13.7-2.3,20.6c0.1,3.4,0.6,6.7,1.7,9.9c1,3.1,2.5,6,3.9,8.9
	c1.4,3,2.7,6.1,3.5,9.3c0.7,3.1,1,6.2,0.8,9.3c-0.2,3.2-0.9,6.3-2.1,9.3c-1.1,2.8-2.8,5.4-4.5,8c-3.1,4.6-6.8,9.5-6.9,15.1
	c-0.2,5.8,3.8,10.6,6.8,15.4c3.4,5.7,4.6,12.1,2.3,18.4c-2,5.7-7.1,10.6-6.1,16.9c0.2,1,0.5,2,1,2.8c-0.6,0-1.3,0.1-1.9,0.1
	c-0.9,0-0.9,1.3,0,1.3c1.3-0.1,2.6-0.2,3.8-0.3c0.7-0.1,1.3-0.1,2-0.2c0.5-0.1,1.2-0.1,1.6-0.3l0,0c-0.2,1.1-0.2,2.2-0.4,3.3
	c-0.2,1.4-0.5,2.8-0.8,4.2c-0.5,2.1-1,4.3-1.7,6.3c-1.5-3.8-3.3-7.5-5.3-11.1c-0.4-0.7-1.6-0.1-1.2,0.6c2.3,4.1,4.3,8.3,5.9,12.6
	c0.2,0.6,1.1,0.6,1.3,0c1-2.7,1.8-5.5,2.4-8.3c0.3-1.4,0.5-2.7,0.7-4.1c0.2-1.4,0.5-2.9,0.4-4.4c0-0.5-0.9-0.7-1.1-0.2h-0.1
	c-0.1,0-0.2,0-0.3,0c0.1,0,0.2,0,0.3,0.1c-0.6-0.2-1.3,0-2,0.1c-0.6,0.1-1.2,0.1-1.8,0.2c-0.1,0-0.2,0-0.3,0
	c-3.8-5.5,1.3-11.9,3.8-16.9c2.8-5.7,3-12.3,0.5-18.2c-2.3-5.3-7-9.8-8.2-15.5c-1.3-5.8,2.2-11.2,5.5-16c1.7-2.4,3.4-4.9,4.7-7.5
	c1.4-2.9,2.4-5.9,2.8-9C104.4,92.3,103.5,86,101,80.1z"/>
<path d="M49.5,170.9L49.5,170.9c0-0.5,0-0.9,0-1.4c0-0.6-0.9-0.7-1.1-0.1c-0.2,0.5-0.3,0.9-0.4,1.4c-0.3,0-0.6,0.1-0.9,0.1
	c-0.8,0-1.6,0.1-2.5,0.1c-0.5,0-0.9,0-1.4,0.1c-1.9-4-1.2-8.5-0.1-12.7c1.2-4.7,3.1-9.3,3.1-14.1c0-2.3-0.4-4.6-1.5-6.7
	c-1.3-2.6-3.6-4.6-5.5-6.7c-2.1-2.3-3.7-4.8-4.2-7.8c-0.6-3-0.2-6,0.6-9c1.6-6.1,4.9-11.8,7.8-17.5c2.8-5.7,5.4-11.5,6.1-17.7
	c0.3-3,0.2-6-0.6-8.9c-0.8-2.8-2.1-5.4-3.5-7.9C42.6,57,39,51.7,40.1,45.8c0.6-3,2.1-5.7,3.6-8.4c1.5-2.7,2.9-5.4,3.6-8.4
	c1.5-5.7,1-11.8-1.3-17.2c-0.6-1.3-1.2-2.6-2-3.8c-0.4-0.7-1.6-0.1-1.2,0.6c3.2,5.3,4.6,11.4,3.8,17.3c-0.4,3.1-1.5,6-2.9,8.9
	c-1.4,2.7-3,5.2-4,8c-1,2.7-1.3,5.6-0.7,8.4c0.6,2.7,1.8,5.3,3.2,7.7c1.4,2.6,3,5.2,4.2,7.9c1.3,2.8,2,5.8,2,8.8
	c0.2,12.9-9,23.7-13.1,35.6c-1.9,5.4-2.7,11.6,0.3,16.9c1.4,2.5,3.7,4.6,5.7,6.7c1.9,2.1,3.2,4.4,3.7,7c1.5,9.4-6.3,18.4-3.6,27.9
	c0.2,0.5,0.4,1.1,0.6,1.6c-0.7,0-1.3,0.1-2,0.1c-0.9,0-0.9,1.3,0,1.2c0.9,0,1.8-0.1,2.6-0.1c0.1,0.1,0.1,0.2,0.2,0.3
	c0.4,0.6,1.3,0.2,1.3-0.4c0.3,0,0.6,0,0.9,0c0.8,0,1.6-0.1,2.5-0.1c0.2,0,0.3,0,0.5,0c-0.1,0.5-0.2,1.1-0.3,1.6
	c-0.3,1.4-0.6,2.9-0.8,4.3c-0.4,2.3-0.9,4.6-1.3,6.9c-2.2-3.7-4.1-7.4-5.8-11.3c-0.3-0.7-1.7-0.4-1.3,0.3c2,4.5,4.3,8.9,6.9,13.2
	c0.3,0.4,1.2,0.4,1.3-0.1c0.6-2.9,1.1-5.9,1.7-8.8c0.3-1.4,0.6-2.9,0.8-4.3c0.1-0.6,0.3-1.3,0.4-1.9c0.2,0,0.3-0.1,0.5-0.1
	C50.1,171.7,49.9,171.1,49.5,170.9z"/>
<path d="M121.4,141.7c-2,0.4-4,0.7-5.9,1.1c0-0.8,0.1-1.7,0.3-2.5c0.6-2.5,2-4.6,3.2-6.9c1.2-2.3,2.3-4.8,2.1-7.5
	c-0.1-2.3-1.2-4.3-2.3-6.3c-1.2-2-2.7-4-3.5-6.2c-1-2.5-1-5.1-0.3-7.6c1.4-5.2,4.8-9.7,6.6-14.8c1.6-4.7,2.3-9.7,1.3-14.6
	c-0.5-2.3-1.4-4.6-2.7-6.7c-1.4-2.2-3.6-4.1-4.5-6.6c-1.6-3.9,0-8.1,1.7-11.8c1.8-3.9,4.1-7.7,4.6-12c0.3-2.2-0.1-4.5-1-6.6
	c-1-2.4-2.5-4.6-3.6-6.9c-2.1-4.5-2-9.8,0.3-14.2c0.6-1.1,1.3-2.1,2.1-3.1c0.5-0.6-0.4-1.5-1-0.9c-3.3,3.8-4.8,8.8-4.2,13.7
	c0.3,2.5,1.3,4.8,2.5,7c1.3,2.3,2.8,4.6,3.4,7.2c1,4.3-1.1,8.7-3,12.6c-1.8,3.7-4,7.7-3.9,11.9c0.1,2.3,0.9,4.4,2.3,6.3
	c1.6,2.2,3.4,4.2,4.5,6.7c2,4.7,1.9,9.9,0.7,14.7c-0.6,2.5-1.6,5-2.8,7.4c-1.3,2.5-2.7,5-3.8,7.6c-1,2.5-1.7,5.1-1.5,7.7
	c0.2,2.4,1.3,4.6,2.5,6.7c1.3,2.1,2.7,4.1,3.5,6.4c0.9,2.6,0.5,5.1-0.6,7.5c-1.7,3.9-4.7,7.8-4.5,12.1c-1,0.2-1.9,0.4-2.9,0.6
	c-0.9,0.2-0.5,1.3,0.4,1.2s1.8-0.3,2.7-0.5c0,0.1,0.1,0.3,0.1,0.4c0.3,1.1,0.9,2,1.6,2.9c0.6,0.6,1.5-0.3,1-0.9
	c-0.7-0.8-1.1-1.7-1.3-2.7c1.7-0.3,3.5-0.7,5.2-1c-0.3,4.3-0.8,8.7-1.4,13c-2-3.4-3.9-6.8-5.9-10.3c-0.4-0.7-1.6-0.1-1.2,0.6
	c2.3,4,4.6,8,6.9,12c0.4,0.6,1.2,0.2,1.3-0.3c0.8-5.3,1.3-10.6,1.8-15.9C122.3,141.9,121.8,141.6,121.4,141.7z"/>
<path d="M25.4,87.3c1.9-3.1,3.4-6.6,2.9-10.1c-0.7-4.4-4.3-7.9-6.5-11.8c-1.2-2.2-1.7-4.6-1.6-7c0.2-2.5,1.1-5,2.1-7.4
	c1.9-4.3,4.5-8.5,5.5-13c0.8-3.8,0.8-8-1.9-11.4c-0.6-0.8-1.4-1.5-2.3-2.1c-0.6-0.4-1.4,0.2-0.9,0.7c3.6,2.9,4.5,6.9,4,10.8
	c-0.6,4.5-2.9,8.6-4.9,12.7c-2.2,4.6-4.1,9.5-2.5,14.4c1.4,4.3,5.3,7.8,7,12c2.9,7.4-4.2,14.1-8.2,20.4c-2,3.1-3.6,6.5-3.4,10.1
	c0.3,4.6,4,8.3,5.6,12.6c3.6,9.4-6.7,18.6-2.5,27.9h-1.7c-0.9,0-0.9,1.1,0,1.1h2.2c0.4,0.7,0.9,1.3,1.4,1.9c0.5,0.6,1.7,0,1.2-0.6
	c-0.4-0.4-0.7-0.9-1-1.3H22c0.6,0,1.5,0.1,2-0.2c0.2-0.2,0.2-0.4,0-0.6c-0.5-0.4-1.4-0.2-2-0.2h-2.7c-1.6-3.2-1.2-7-0.2-10.3
	c1.4-4.9,4-9.9,3.3-15c-0.6-4.7-4.4-8.5-5.9-13c-1.1-3.7,0.1-7.3,2.1-10.6C20.7,93.8,23.4,90.6,25.4,87.3z"/>
<path d="M25,146.1c-0.5,1-0.8,2.2-1.2,3.3c-0.3,1.1-0.6,2.2-0.8,3.4c-0.4,1.7-0.7,3.4-0.9,5.1c-2.4-3.3-4.8-6.6-7.1-9.8
	c-0.5-0.7-1.7,0-1.2,0.7c2.7,3.8,5.4,7.5,8.2,11.3c0.4,0.6,1.2,0.3,1.3-0.4c0.3-2.2,0.7-4.4,1.2-6.6c0.2-1.1,0.5-2.2,0.8-3.3
	s0.7-2.1,0.8-3.2C26.1,146,25.3,145.5,25,146.1z"/>
<path d="M21.6,215.6c0.7-0.4,1.4-0.9,2-1.5c1.1-1.1,1.8-2.5,1.6-4c-0.1-1.3-0.8-2.7-2-3.3c-1.6-0.8-3.2,0.1-4.4,1.2
	c-0.8,0.8-1.5,1.6-2.2,2.4c-0.8,0.9-1.7,1.9-2.5,2.8c-0.6,0.7,0.4,1.7,1,1c1.2-1.4,2.4-2.8,3.7-4.1c0.8-0.9,1.9-2.4,3.3-2.2
	c1,0.1,1.6,1.2,1.7,2.1c0.2,1.2-0.3,2.2-1.2,3c-0.6,0.5-1.2,1-1.9,1.4c-0.7,0.4-1.4,0.7-2,1.1c-0.2-0.8-0.5-1.6-0.7-2.4
	c-0.2-0.9-1.6-0.5-1.3,0.4c0.6,2.3,1.3,4.6,2.1,6.8c0.4,1.1,0.7,2.2,1.1,3.3s0.7,2.3,1.3,3.3c0.4,0.7,1.3,0.2,1.2-0.5
	c-0.2-1.1-0.8-2.3-1.2-3.4c-0.4-1.1-0.7-2.1-1.1-3.2c-0.4-1.1-0.7-2.1-1-3.2h0.1C20.1,216.5,20.9,216,21.6,215.6z"/>
<path d="M29.2,214.1c-0.1-0.8-0.3-1.6-0.8-2.2c-0.3-0.4-1-0.1-1,0.4c0,0.7,0.3,1.4,0.4,2.1c0.1,0.7,0.2,1.4,0.2,2.1
	c0,1.1-0.1,2.2-0.3,3.2c-0.8-0.7-1.4-1.6-1.5-2.7c-0.1-0.9-1.5-0.9-1.4,0c0.2,1.9,1.2,3.6,2.9,4.4c0.4,0.2,0.9,0,1-0.4
	c0.5-1.5,0.7-3.1,0.6-4.6C29.4,215.7,29.3,214.9,29.2,214.1z"/>
<path d="M38.6,211.8c-0.4-1-1.3-1.5-2.3-1.5c-0.9,0-1.7,0.3-2.5,0.6c-0.5,0.2-0.9,0.3-1.4,0.4c0,0,0.1,0,0,0s-0.1,0-0.2,0
	c-0.1,0-0.1,0-0.2,0c0.3-0.7,0.8-1.3,1.4-1.7c0.3-0.2,0.2-0.7,0-1c-0.3-0.3-0.7-0.2-1,0c-1,0.8-1.7,1.9-2.1,3.1
	c-0.1,0.4,0.1,0.7,0.5,0.9c1.5,0.6,3.1-0.3,4.5-0.7c0.2,0,0.3-0.1,0.5-0.1h0.1l0,0c0.1,0,0.2,0,0.3,0s0.1,0,0.2,0h0.1h0.1
	c0.1,0,0.1,0.1,0.2,0.1l0,0c0,0,0.1,0,0.1,0.1s0.1,0.1,0.1,0.2c0.1,0.1,0.1,0.3,0.1,0.4c0,0.4-0.1,0.8-0.3,1.1
	c-0.6,0.9-1.7,1.1-2.7,1.4c-0.6,0.2-0.5,1.1,0.2,1.1c1.2,0,2.4-0.4,3.3-1.3C38.6,214.1,39,212.9,38.6,211.8z"/>
<path d="M47.8,207.7c-0.2-0.9-0.4-1.7-0.6-2.6c0-0.1,0-0.2-0.1-0.4c0.2-0.2,0.2-0.4,0.2-0.7c-0.1-0.2-0.2-0.4-0.4-0.4
	c-0.2-1.2-0.4-2.5-0.5-3.7c-0.1-0.9-1.5-0.9-1.4,0c0.1,1.4,0.3,2.7,0.6,4.1c0,0,0,0-0.1,0c-0.5,0.2-1,0.4-1.5,0.6
	c-0.7,0.3-1.4,0.5-2.2,0.7c-0.3-1-0.6-1.9-0.9-2.9c-0.3-0.9-1.6-0.5-1.3,0.4c0.3,1,0.6,2,0.9,2.9c-0.2,0.2-0.4,0.5-0.3,0.8
	c0.1,0.3,0.4,0.5,0.7,0.5l0.1,0.2c0.4,1.4,0.8,3,1.5,4.3c0.3,0.5,1.1,0.3,1.1-0.3c-0.2-1.5-0.8-3-1.2-4.4v-0.1
	c0.7-0.2,1.4-0.4,2.1-0.7c0.5-0.2,1-0.4,1.5-0.6c0.2,0.8,0.3,1.6,0.5,2.4c0.2,0.9,0.4,1.8,0.8,2.6c0.3,0.5,1.2,0.3,1.2-0.3
	C48.3,209.3,48,208.5,47.8,207.7z"/>
<path d="M103.8,208.9c-0.5-0.5-1.3-0.6-2-0.9c-0.6-0.2-1.2-0.5-1.8-0.7c-1.3-0.6-2.5-1.2-3.7-1.9c-0.8-0.5-1.5,0.7-0.7,1.2
	c1,0.6,2,1.1,3.1,1.6c-0.1,0.1-0.1,0.2-0.2,0.3c-0.4,0.9-0.7,1.8-1.1,2.7c-0.2,0.4-0.4,0.9-0.5,1.3c-0.2,0.5-0.4,1-0.4,1.5
	s0.6,0.7,0.9,0.4c0.4-0.4,0.6-0.9,0.8-1.4c0.2-0.5,0.4-0.9,0.6-1.4c0.4-0.9,0.7-1.8,1.1-2.8v-0.1c0.5,0.2,1,0.4,1.6,0.6
	c0.7,0.2,1.4,0.5,2.1,0.4C103.9,209.7,104,209.1,103.8,208.9z"/>
<path d="M109.2,212.4c-0.3-0.2-0.8-0.1-1,0.3c-0.2,0.3-0.3,0.6-0.5,1c-0.3-0.1-0.5-0.2-0.8-0.4c-0.7-0.3-1.4-0.6-2.1-0.9h-0.1
	c0.3-0.7,0.7-1.5,1-2.2c0.2-0.3,0.1-0.8-0.3-1c-0.3-0.2-0.8-0.1-1,0.3c-0.4,0.9-0.8,1.7-1.2,2.6c-0.2,0.4-0.4,0.8-0.6,1.3
	s-0.6,1.1-0.3,1.6c0.1,0.2,0.4,0.3,0.6,0.2c0.5-0.1,0.7-0.8,0.9-1.2c0-0.1,0.1-0.2,0.1-0.3c0.7,0.3,1.4,0.6,2.1,0.9
	c0.3,0.1,0.6,0.3,0.9,0.4c0,0.1-0.1,0.1-0.1,0.2l-0.6,1.1c-0.2,0.5-0.7,1.2,0,1.6c0.6,0.4,1-0.4,1.3-0.9c0.2-0.4,0.4-0.7,0.6-1.1
	l1.2-2.4C109.6,213,109.6,212.5,109.2,212.4z"/>
<path d="M115.7,222c-0.3-0.4-0.9-0.6-1.3-0.8s-0.9-0.4-1.3-0.7l-1.3-0.7c-0.3-0.2-0.8-0.3-1-0.6c-0.2-0.2,0.1-0.5,0.3-0.7
	c0.3-0.4,0.6-0.8,0.9-1.2c0.6-0.8,1.2-1.6,1.8-2.5c0.2-0.3,0.1-0.8-0.3-1s-0.7-0.1-1,0.3c-0.7,0.9-1.4,1.9-2.1,2.8
	c-0.6,0.8-1.5,1.8-0.9,2.8c0.5,0.8,1.7,1.2,2.5,1.7c0.5,0.3,1,0.5,1.5,0.8s1.1,0.7,1.7,0.7C115.8,223.1,116,222.4,115.7,222z"/>
<path d="M116.2,219.2c-0.1-0.4-0.4-0.6-0.7-0.8c-0.2-0.1-0.4-0.3-0.7-0.4c-0.5-0.3-0.9-0.6-1.4-0.8c-0.3-0.2-0.8-0.1-1,0.3
	c-0.2,0.3-0.1,0.8,0.3,1c0.5,0.3,0.9,0.6,1.4,0.8c0.2,0.1,0.5,0.3,0.7,0.4c0.3,0.1,0.6,0.3,0.9,0.3c0.2,0,0.3-0.1,0.4-0.2
	C116.2,219.5,116.2,219.3,116.2,219.2z"/>
<path d="M119.7,216c-0.4-0.2-0.8-0.4-1.2-0.6c-0.4-0.2-0.8-0.3-1.1-0.5c-0.8-0.4-1.6-0.7-2.4-1.1c-0.3-0.2-0.8-0.1-1,0.3
	c-0.2,0.3-0.1,0.8,0.3,1c0.8,0.4,1.6,0.7,2.4,1.1c0.4,0.2,0.8,0.4,1.2,0.5c0.4,0.2,0.9,0.4,1.3,0.6c0.2,0.1,0.5,0,0.7-0.2
	c0.1-0.2,0.2-0.3,0.2-0.5C120.1,216.4,119.9,216.1,119.7,216z"/>
<path d="M52.5,366.1c-1.4-0.8-3-1.1-4.5-0.9c0.7-0.9,1.4-1.8,1.9-2.9c0.2-0.4,0-0.9-0.4-1c-1.8-0.7-3.9-0.6-5.6,0.2
	c-0.8,0.4-0.1,1.6,0.7,1.2c1.2-0.6,2.5-0.7,3.7-0.4c-0.8,1.5-2,2.8-3.3,3.9c-0.1,0.1-0.1,0.2-0.2,0.2c-0.1-0.6-0.2-1.3-0.4-1.9
	c-0.1-0.4-0.5-0.6-0.9-0.5s-0.6,0.5-0.5,0.9c0.2,0.8,0.4,1.6,0.5,2.3c0,0.4,0.1,0.8,0.1,1.2c0,0.5-0.1,0.9,0.2,1.4
	c0.1,0.3,0.4,0.3,0.7,0.2c-0.3,0.3-0.2,0.7,0.2,0.9c0.7,0.3,1.6,0.2,2.4,0c0.8-0.2,1.6-0.4,2.3-0.8c1.4-0.7,2.6-1.8,3.5-3.1
	C52.9,366.7,52.8,366.3,52.5,366.1z M48.4,369c-0.6,0.3-1.2,0.5-1.9,0.6s-1.4,0.1-2,0.3c0,0,0.1,0,0.1-0.1c0.3-0.4,0.3-0.9,0.3-1.4
	c0-0.4,0-0.9-0.1-1.3V367c0.2,0.3,0.6,0.5,0.9,0.3c1.6-0.9,3.6-1.1,5.4-0.4C50.3,367.8,49.4,368.5,48.4,369z"/>
<path d="M61.4,365.4c0-0.4,0-0.8-0.1-1.1c0-0.4,0-0.8-0.1-1.2c-0.1-0.5-0.8-0.6-1.1-0.1c-0.3,0.7-0.2,1.5-0.2,2.3
	c0,0.7,0.1,1.4,0.1,2.1c-0.1,0.9-0.4,1.9-1.2,2.5s-1.8,0.1-2.4-0.6c-0.8-1.1-0.7-2.5-0.7-3.8c0-0.9-1.4-0.9-1.4,0
	c0,1.3,0,2.6,0.5,3.8c0.4,1,1.3,1.9,2.4,2.2c2.3,0.6,3.9-1.7,4.1-3.8C61.5,366.8,61.4,366.1,61.4,365.4z"/>
<path d="M69.7,363.5c-1.8-0.1-3.6,0-5.3,0c-0.9,0-0.9,1.4,0,1.4c0.2,0,0.3,0,0.5,0c-0.1,0.1-0.1,0.2-0.1,0.4c-0.1,1-0.2,2-0.3,3
	c-0.1,0.5-0.1,1-0.2,1.5c0,0.2-0.1,0.5-0.1,0.7c0,0.4,0.3,0.7,0.7,0.7c0.8,0,0.7-0.9,0.8-1.4c0.1-0.5,0.1-1,0.2-1.5
	c0.1-1,0.2-2,0.3-3c0-0.1,0-0.2-0.1-0.4c1.2,0,2.5,0,3.7,0C70.6,364.9,70.6,363.6,69.7,363.5z"/>
<path d="M73.5,366.7c-0.4,0-0.7,0.3-0.7,0.7v3.4c0,0.2,0,0.4,0,0.6c0,0.3,0,0.5,0.2,0.8c0.2,0.2,0.7,0.2,0.9,0
	c0.2-0.2,0.2-0.5,0.2-0.8c0-0.2,0-0.3,0-0.5v-3.4C74.2,367.1,73.9,366.7,73.5,366.7z"/>
<path d="M75.4,365.6c-0.4-0.4-1-0.2-1.5-0.1c-0.4,0-0.8,0.1-1.2,0.1c-0.8,0.1-1.7,0.2-2.5,0.3c-0.4,0-0.7,0.3-0.7,0.7
	c0,0.3,0.3,0.7,0.7,0.7c0.9-0.1,1.7-0.2,2.6-0.3c0.4-0.1,0.8-0.1,1.3-0.2c0.2,0,0.4-0.1,0.7-0.1c0.4,0,0.6-0.1,0.8-0.4
	C75.6,366.2,75.6,365.8,75.4,365.6z"/>
<path d="M83.9,366.5c-0.4-0.6-1-1.1-1.7-1.3c-0.8-0.2-1.6-0.1-2.3,0.2c-1.5,0.7-2.8,2.7-1.9,4.3c0.1,0.3,0.5,0.4,0.8,0.3l0,0
	c0.1,0.7,0.5,1.3,1.1,1.6c1.4,0.8,3.2,0.1,4-1.3C84.6,369.2,84.6,367.6,83.9,366.5z M83,368.8L83,368.8c0,0.1,0,0.2-0.1,0.3
	c0,0.1-0.1,0.2-0.1,0.3v0.1c0,0.1,0,0.1-0.1,0.2s-0.1,0.2-0.2,0.3l0,0c0,0.1-0.1,0.1-0.1,0.2l-0.1,0.1c0,0-0.1,0-0.1,0.1l-0.1,0.1
	c-0.1,0-0.1,0.1-0.2,0.1l0,0l0,0c-0.1,0-0.1,0-0.2,0.1c-0.1,0-0.1,0-0.2,0c0,0,0,0-0.1,0h-0.1c-0.1,0-0.2,0-0.2,0s0,0-0.1,0h-0.1
	c-0.1,0-0.2,0-0.2-0.1l0,0c0,0-0.1,0-0.1-0.1c0,0-0.1,0-0.1-0.1c0,0-0.1-0.1-0.1,0c0.1,0,0,0,0,0l-0.1-0.1c0,0.1,0,0-0.1-0.1v-0.1
	c0,0,0,0,0-0.1v-0.1v-0.1v-0.1c0,0,0-0.1,0.1-0.1c0,0,0,0,0-0.1l0,0l0,0c0,0,0.2-0.1,0.1-0.1c0,0,0,0,0.1,0l0,0l0,0c0,0,0,0,0.1,0
	l0,0c0.9,0,0.9-1.4,0-1.4c-0.6,0-1.2,0.4-1.5,0.9v-0.1v-0.1v-0.1c0-0.1,0-0.1,0.1-0.2c0,0,0-0.1,0.1-0.1l0.1-0.1
	c0-0.1,0.1-0.1,0.1-0.2s0.1-0.1,0.1-0.2c0,0,0-0.1,0.1-0.1l0,0c0.1-0.1,0.2-0.2,0.3-0.3l0.1-0.1c0,0,0,0,0.1,0l0,0
	c0.1-0.1,0.2-0.1,0.3-0.2c0.1,0,0.1-0.1,0.2-0.1c0,0,0.1,0,0.1-0.1c0.1,0,0.3-0.1,0.4-0.1h0.1c0.1,0,0.1,0,0.2,0s0.1,0,0.2,0l0,0
	l0,0c0.1,0,0.3,0.1,0.4,0.1c0,0,0.1,0,0.1,0.1l0.1,0.1l0.1,0.1l0.1,0.1l0.1,0.1c0,0,0,0.1,0.1,0.1c0.1,0.1,0.1,0.2,0.2,0.3v0.1
	c0,0,0,0,0,0.1s0.1,0.2,0.1,0.4c0,0.1,0,0.1,0,0.2l0,0c0,0.1,0,0.3,0,0.4C83,368.6,83,368.7,83,368.8z"/>
<path d="M95.5,360.9c-0.1-0.5-0.9-0.6-1.1-0.1c-0.4,0.7-0.4,1.7-0.6,2.5c-0.1,0.8-0.3,1.7-0.4,2.5c-0.2,1.2-0.4,2.3-0.6,3.5
	c-1-1.2-2.1-2.4-3.3-3.4c-0.3-0.2-0.7-0.3-1,0l0.1-0.4c0.1-0.4-0.1-0.8-0.5-0.9s-0.8,0.1-0.9,0.5l-0.5,2.5c-0.2,0.8-0.5,1.7-0.4,2.5
	c0,0.5,0.8,0.8,1.1,0.3c0.4-0.8,0.5-1.6,0.7-2.5l0.3-1.3c0,0.1,0.1,0.2,0.2,0.2c1.6,1.3,3,2.8,4.1,4.5c0.3,0.5,1.2,0.5,1.3-0.2
	c0.3-1.7,0.6-3.4,0.9-5.2c0.1-0.8,0.3-1.7,0.4-2.5C95.4,362.6,95.6,361.7,95.5,360.9z"/>
</svg>
